<svg width="27" height="17" viewBox="0 0 27 17" fill="none" xmlns="http://www.w3.org/2000/svg">
<path fill-rule="evenodd" clip-rule="evenodd" d="M0.8125 8.2409C0.8125 8.00891 0.90798 7.78643 1.07793 7.62239C1.24789 7.45835 1.4784 7.36619 1.71875 7.36619H23.0936L17.3896 1.86254C17.2195 1.6983 17.1239 1.47553 17.1239 1.24325C17.1239 1.01097 17.2195 0.788207 17.3896 0.623961C17.5598 0.459714 17.7906 0.367442 18.0312 0.367442C18.2719 0.367442 18.5027 0.459714 18.6729 0.623961L25.9229 7.62161C26.0073 7.70286 26.0742 7.79939 26.1199 7.90566C26.1656 8.01192 26.1891 8.12585 26.1891 8.2409C26.1891 8.35596 26.1656 8.46988 26.1199 8.57615C26.0742 8.68241 26.0073 8.77894 25.9229 8.86019L18.6729 15.8578C18.5027 16.0221 18.2719 16.1144 18.0312 16.1144C17.7906 16.1144 17.5598 16.0221 17.3896 15.8578C17.2195 15.6936 17.1239 15.4708 17.1239 15.2385C17.1239 15.0063 17.2195 14.7835 17.3896 14.6193L23.0936 9.11561H1.71875C1.4784 9.11561 1.24789 9.02345 1.07793 8.85941C0.90798 8.69537 0.8125 8.47289 0.8125 8.2409Z" fill="#FF8A00"/>
</svg>
